<?xml version="1.0" encoding="utf-8"?>
<!-- Generator: Adobe Illustrator 19.0.0, SVG Export Plug-In . SVG Version: 6.00 Build 0)  -->
<svg version="1.1" id="layer" xmlns="http://www.w3.org/2000/svg" xmlns:xlink="http://www.w3.org/1999/xlink" x="0px" y="0px"
	 viewBox="-153 -46 652 652" style="enable-background:new -153 -46 652 652;" xml:space="preserve">
<style type="text/css">
	.st0{fill:#1A1A2E;}
</style>
<g transform="translate(173 280) scale(1.55) translate(-173 -280)">
<path class="st0" d="M7.1,265.7c-0.6-4.5-4.9-7.9-9.8-7.9c-8.9,0-12.2,7.6-12.2,15.6c0,7.6,3.3,15.2,12.2,15.2
	c6,0,9.4-4.2,10.2-10.2h9.6c-1,11.3-8.7,18.6-19.8,18.6c-13.9,0-22.1-10.5-22.1-23.6c0-13.5,8.2-24,22.1-24
	c9.9,0,18.2,5.8,19.4,16.3H7.1z M20,295.8h9.9v-45.4H20V295.8z M33.3,280.8c-0.1,11.2,9.2,16.1,19.1,16.1c12.2,0,18.7-6.2,18.7-14.6
	c0-10.3-10.1-12.4-13.3-13.2c-11.3-2.9-13.4-3.4-13.4-6.9c0-3.8,3.7-5.1,6.8-5.1c4.7,0,8.6,1.4,8.9,6.9h9.6c0-10.5-8.6-14.6-18-14.6
	c-8.1,0-16.8,4.5-16.8,13.7c0,8.5,6.7,11.1,13.4,12.9c6.6,1.8,13.3,2.6,13.3,7.5c0,4.6-5.3,5.7-8.8,5.7c-5.3,0-9.9-2.4-9.9-8.4H33.3
	z M94.1,261.6h0.1l5.7,16.7H88.3L94.1,261.6z M72.2,295.8h10l3.5-10.1h16.8l3.4,10.1h10.3l-16.8-45.4H89.2L72.2,295.8z M168.6,264.2
	c-1.1-9.5-9.6-14.7-18.1-14.7c-14.2,0-21.2,11.3-21.2,23.7c0,12.4,7,23.6,21.2,23.6c10.5,0,17.5-7.1,18.7-18.2h-4.3
	c-0.8,8.1-6.1,14.6-14.4,14.6c-11.9,0-16.9-10-16.9-20c0-9.9,5-20,16.9-20c6.5,0,12.3,4,13.8,11H168.6z M173.2,295.8h31.3v-3.7
	h-27.1v-17.9h25.1v-3.7h-25.1v-16.4h26.7v-3.7h-31V295.8z M213.6,254.1h16c6.4,0,9.7,3.5,9.7,9s-4.5,8.8-9.7,8.8h-16V254.1z
	 M209.3,295.8h4.3v-20.2h16.2c8.1-0.3,8.6,6.7,9,13.1c0.1,1.9,0.1,5.3,1.2,7.1h4.7c-1.9-2.3-1.9-8.5-2.1-11.6
	c-0.3-5.4-2-9.5-7.9-10.2v-0.1c5.8-1.1,8.7-5.8,8.7-11.6c0-8.2-6.2-11.8-13.7-11.8h-20.6V295.8z M266.6,254.7l8.7,23.3h-17.7
	L266.6,254.7z M246.3,295.8h4.6l5.4-14.1h20.5l5.5,14.1h4.6l-17.6-45.4h-4.8L246.3,295.8z M290.8,295.8h4.3v-39.2h0.1l15.4,39.2h4
	l15.4-39.2h0.1v39.2h4.3v-45.4h-6.3l-15.5,39.8l-15.5-39.8h-6.3V295.8z M343.7,295.8h4.3v-45.4h-4.3V295.8z M390.7,264.2
	c-1.1-9.5-9.6-14.7-18.1-14.7c-14.2,0-21.2,11.3-21.2,23.7c0,12.4,7,23.6,21.2,23.6c10.5,0,17.5-7.1,18.7-18.2H387
	c-0.8,8.1-6.1,14.6-14.4,14.6c-11.9,0-16.9-10-16.9-20c0-9.9,5-20,16.9-20c6.5,0,12.3,4,13.8,11H390.7z M395.3,295.8h4.3v-22h26.7
	v22h4.3v-45.4h-4.3v19.7h-26.7v-19.7h-4.3V295.8z M437.1,295.8h31.3v-3.7h-27.1v-17.9h25.1v-3.7h-25.1v-16.4h26.7v-3.7h-31V295.8z
	 M-86.4,301.9l26-26.3l-26-26.3l-26,26.3L-86.4,301.9z M-41.3,275.7l-45.1,45.6l-45.1-45.6l45.1-45.6	L-41.3,275.7z"/>
</g>
</svg>
