<?xml version="1.0" encoding="UTF-8" standalone="no"?>
<!-- Created with Inkscape (http://www.inkscape.org/) -->

<svg
   width="1556"
   height="467.00003"
   viewBox="0 0 411.69166 123.56042"
   version="1.1"
   id="svg1"
   xmlns="http://www.w3.org/2000/svg"
   xmlns:svg="http://www.w3.org/2000/svg">
  <defs
     id="defs1">
    <clipPath
       clipPathUnits="userSpaceOnUse"
       id="clipPath208">
      <path
         d="M 0,1200 H 1677.957 V 0 H 0 Z"
         transform="translate(-255.22021,-775.28942)"
         id="path208" />
    </clipPath>
    <clipPath
       clipPathUnits="userSpaceOnUse"
       id="clipPath210">
      <path
         d="M 0,1200 H 1677.957 V 0 H 0 Z"
         transform="translate(-371.83808,-565.30291)"
         id="path210" />
    </clipPath>
    <clipPath
       clipPathUnits="userSpaceOnUse"
       id="clipPath212">
      <path
         d="M 0,1200 H 1677.957 V 0 H 0 Z"
         transform="translate(-690.11642,-567.06631)"
         id="path212" />
    </clipPath>
    <clipPath
       clipPathUnits="userSpaceOnUse"
       id="clipPath214">
      <path
         d="M 0,1200 H 1677.957 V 0 H 0 Z"
         transform="translate(-794.66642,-683.37542)"
         id="path214" />
    </clipPath>
    <clipPath
       clipPathUnits="userSpaceOnUse"
       id="clipPath216">
      <path
         d="M 0,1200 H 1677.957 V 0 H 0 Z"
         transform="translate(-870.09535,-628.38671)"
         id="path216" />
    </clipPath>
    <clipPath
       clipPathUnits="userSpaceOnUse"
       id="clipPath218">
      <path
         d="M 0,1200 H 1677.957 V 0 H 0 Z"
         transform="translate(-964.15442,-586.96331)"
         id="path218" />
    </clipPath>
    <clipPath
       clipPathUnits="userSpaceOnUse"
       id="clipPath220">
      <path
         d="M 0,1200 H 1677.957 V 0 H 0 Z"
         transform="translate(-1101.8055,-567.06631)"
         id="path220" />
    </clipPath>
    <clipPath
       clipPathUnits="userSpaceOnUse"
       id="clipPath222">
      <path
         d="M 0,1200 H 1677.957 V 0 H 0 Z"
         transform="translate(-1157.5168,-586.96331)"
         id="path222" />
    </clipPath>
    <clipPath
       clipPathUnits="userSpaceOnUse"
       id="clipPath224">
      <path
         d="M 0,1200 H 1677.957 V 0 H 0 Z"
         transform="translate(-1279.6122,-567.06631)"
         id="path224" />
    </clipPath>
    <clipPath
       clipPathUnits="userSpaceOnUse"
       id="clipPath226">
      <path
         d="M 0,1200 H 1677.957 V 0 H 0 Z"
         transform="translate(-1358.2959,-567.06631)"
         id="path226" />
    </clipPath>
    <clipPath
       clipPathUnits="userSpaceOnUse"
       id="clipPath228">
      <path
         d="M 0,1200 H 1677.957 V 0 H 0 Z"
         transform="translate(-633.46404,-527.17801)"
         id="path228" />
    </clipPath>
    <clipPath
       clipPathUnits="userSpaceOnUse"
       id="clipPath230">
      <path
         d="M 0,1200 H 1677.957 V 0 H 0 Z"
         transform="translate(-701.29862,-512.73661)"
         id="path230" />
    </clipPath>
    <clipPath
       clipPathUnits="userSpaceOnUse"
       id="clipPath232">
      <path
         d="M 0,1200 H 1677.957 V 0 H 0 Z"
         transform="translate(-738.16629,-512.33291)"
         id="path232" />
    </clipPath>
    <clipPath
       clipPathUnits="userSpaceOnUse"
       id="clipPath234">
      <path
         d="M 0,1200 H 1677.957 V 0 H 0 Z"
         transform="translate(-786.52059,-527.17801)"
         id="path234" />
    </clipPath>
    <clipPath
       clipPathUnits="userSpaceOnUse"
       id="clipPath236">
      <path
         d="M 0,1200 H 1677.957 V 0 H 0 Z"
         transform="translate(-825.91435,-527.17801)"
         id="path236" />
    </clipPath>
    <clipPath
       clipPathUnits="userSpaceOnUse"
       id="clipPath238">
      <path
         d="M 0,1200 H 1677.957 V 0 H 0 Z"
         transform="translate(-892.97012,-510.96091)"
         id="path238" />
    </clipPath>
    <clipPath
       clipPathUnits="userSpaceOnUse"
       id="clipPath240">
      <path
         d="M 0,1200 H 1677.957 V 0 H 0 Z"
         transform="translate(-936.91652,-517.70101)"
         id="path240" />
    </clipPath>
    <clipPath
       clipPathUnits="userSpaceOnUse"
       id="clipPath242">
      <path
         d="M 0,1200 H 1677.957 V 0 H 0 Z"
         transform="translate(-1006.053,-512.38261)"
         id="path242" />
    </clipPath>
    <clipPath
       clipPathUnits="userSpaceOnUse"
       id="clipPath244">
      <path
         d="M 0,1200 H 1677.957 V 0 H 0 Z"
         transform="translate(-1058.6214,-532.98052)"
         id="path244" />
    </clipPath>
    <clipPath
       clipPathUnits="userSpaceOnUse"
       id="clipPath246">
      <path
         d="M 0,1200 H 1677.957 V 0 H 0 Z"
         id="path246" />
    </clipPath>
    <clipPath
       clipPathUnits="userSpaceOnUse"
       id="clipPath248">
      <path
         d="M 0,1200 H 1677.957 V 0 H 0 Z"
         transform="translate(-1152.1852,-508.56352)"
         id="path248" />
    </clipPath>
    <clipPath
       clipPathUnits="userSpaceOnUse"
       id="clipPath250">
      <path
         d="M 0,1200 H 1677.957 V 0 H 0 Z"
         transform="translate(-1189.4404,-527.17801)"
         id="path250" />
    </clipPath>
    <clipPath
       clipPathUnits="userSpaceOnUse"
       id="clipPath252">
      <path
         d="M 0,1200 H 1677.957 V 0 H 0 Z"
         transform="translate(-1258.0488,-510.96091)"
         id="path252" />
    </clipPath>
    <clipPath
       clipPathUnits="userSpaceOnUse"
       id="clipPath254">
      <path
         d="M 0,1200 H 1677.957 V 0 H 0 Z"
         transform="translate(-1296.2271,-527.17801)"
         id="path254" />
    </clipPath>
    <clipPath
       clipPathUnits="userSpaceOnUse"
       id="clipPath256">
      <path
         d="M 0,1200 H 1677.957 V 0 H 0 Z"
         transform="translate(-1364.8356,-510.96091)"
         id="path256" />
    </clipPath>
    <clipPath
       clipPathUnits="userSpaceOnUse"
       id="clipPath258">
      <path
         d="M 0,1200 H 1677.957 V 0 H 0 Z"
         transform="translate(-1408.7827,-517.70101)"
         id="path258" />
    </clipPath>
  </defs>
  <g
     id="layer1"
     transform="translate(26.193806,1.322922)">
    <g
       id="g1"
       transform="matrix(0.83262914,0,0,0.83262914,29.992612,10.070472)">
      <path
         id="path207"
         d="m 0,0 v -105.177 c 0,-88.565 42.808,-171.829 115.527,-228.297 2.785,-2.172 5.617,-4.298 8.492,-6.38 5.108,-3.715 16.177,-10.725 16.177,-10.725 l 3.31,23.8 c -9.137,3.296 -15.682,12.208 -15.682,22.782 0,13.331 10.454,24.13 23.306,24.13 12.911,0 23.351,-10.799 23.351,-24.13 0,-10.574 -6.591,-19.486 -15.698,-22.782 l 3.296,-23.785 c 0,0 7.968,4.374 11.263,6.665 5.482,3.805 10.815,7.744 15.997,11.833 29.912,23.546 54.655,51.675 73.348,82.844 26.062,43.467 40.381,92.895 40.381,144.045 V 0 Z"
         style="fill:#003f91;fill-opacity:1;fill-rule:nonzero;stroke:none"
         transform="matrix(0.35277776,0,0,-0.35277776,-26.193808,-1.3229202)"
         clip-path="url(#clipPath208)" />
      <path
         id="path209"
         d="M 0,0 V 34.832 H 34.826 L 58.192,58.258 H 0 v 23.216 h 58.073 l 23.5,23.426 H 0 v 34.851 h 93.287 v 23.423 H -8.565 v -0.008 H -23.423 V -23.407 h 14.942 v -0.016 H 93.37 V 0 Z"
         style="fill:#ffffff;fill-opacity:1;fill-rule:nonzero;stroke:none"
         transform="matrix(0.35277776,0,0,-0.35277776,14.946387,72.75565)"
         clip-path="url(#clipPath210)" />
      <path
         id="path211"
         d="M 0,0 H -62.947 V 116.309 H 0 c 2.412,0 3.619,-1.267 3.619,-3.798 V 100.21 C 3.619,97.678 2.412,96.412 0,96.412 h -37.805 c -1.447,0 -2.17,-0.665 -2.17,-1.99 V 70.907 c 0,-1.329 0.723,-1.989 2.17,-1.989 h 34.729 c 10e-4,0 0.002,-0.001 0.002,-0.001 V 49.021 c 0,-10e-4 -0.001,-0.002 -0.002,-0.002 h -34.729 c -1.447,0 -2.17,-0.663 -2.17,-1.989 V 21.888 c 0,-1.33 0.723,-1.991 2.17,-1.991 H 0 c 2.412,0 3.619,-1.266 3.619,-3.798 V 3.798 C 3.619,1.266 2.412,0 0,0"
         style="fill:#333333;fill-opacity:1;fill-rule:nonzero;stroke:none"
         transform="matrix(0.35277776,0,0,-0.35277776,127.22791,72.133561)"
         clip-path="url(#clipPath212)" />
      <path
         id="path213"
         d="m 0,0 c 2.651,0 3.98,-1.207 3.98,-3.617 v -83.208 c 0,-9.407 -2.623,-16.672 -7.869,-21.797 -5.245,-5.126 -12.571,-7.687 -21.977,-7.687 h -19.897 c -9.528,0 -16.885,2.532 -22.069,7.597 -5.186,5.065 -7.777,12.36 -7.777,21.887 V 0 h 22.971 c 10e-4,0 10e-4,-0.001 10e-4,-0.001 v -85.738 c 0,-3.862 0.814,-6.602 2.442,-8.23 1.628,-1.628 4.31,-2.443 8.049,-2.443 h 12.48 c 3.858,0 6.604,0.815 8.232,2.443 1.627,1.628 2.441,4.368 2.441,8.23 V 0 Z"
         style="fill:#333333;fill-opacity:1;fill-rule:nonzero;stroke:none"
         transform="matrix(0.35277776,0,0,-0.35277776,164.11082,31.102296)"
         clip-path="url(#clipPath214)" />
      <path
         id="path215"
         d="m 0,0 c 3.858,0 6.692,0.813 8.502,2.442 1.808,1.628 2.713,4.25 2.713,7.868 v 14.109 c 0,3.737 -0.905,6.45 -2.713,8.14 C 6.692,34.246 3.858,35.092 0,35.092 H -19.716 V 0 Z M -19.716,-61.32 H -42.689 V 54.989 H 4.159 c 9.406,0 16.761,-2.595 22.068,-7.778 5.306,-5.187 7.96,-12.482 7.96,-21.888 V 11.215 c 0,-13.629 -5.367,-22.674 -16.099,-27.133 v -0.724 l 19.354,-40.337 c 1.086,-2.894 0.06,-4.341 -3.074,-4.341 H 19.716 c -2.171,0 -3.739,0.24 -4.703,0.723 -0.967,0.481 -1.749,1.506 -2.352,3.075 l -18.088,39.071 h -12.119 c -1.448,0 -2.17,-0.664 -2.17,-1.989 z"
         style="fill:#333333;fill-opacity:1;fill-rule:nonzero;stroke:none"
         transform="matrix(0.35277776,0,0,-0.35277776,190.72047,50.501088)"
         clip-path="url(#clipPath216)" />
      <path
         id="path217"
         d="m 0,0 h 12.843 c 3.858,0 6.602,0.815 8.23,2.443 1.628,1.628 2.441,4.368 2.441,8.23 v 55.169 c 0,3.858 -0.813,6.602 -2.441,8.23 -1.628,1.628 -4.372,2.443 -8.23,2.443 H 0 c -3.862,0 -6.575,-0.815 -8.14,-2.443 -1.569,-1.628 -2.352,-4.372 -2.352,-8.23 V 10.673 c 0,-3.862 0.783,-6.602 2.352,-8.23 C -6.575,0.815 -3.862,0 0,0 M 16.641,-19.897 H -3.617 c -9.529,0 -16.885,2.532 -22.069,7.597 -5.187,5.065 -7.778,12.36 -7.778,21.887 v 57.34 c 0,9.526 2.591,16.823 7.778,21.888 5.184,5.065 12.54,7.597 22.069,7.597 h 20.258 c 9.524,0 16.882,-2.532 22.068,-7.597 5.183,-5.065 7.778,-12.362 7.778,-21.888 V 9.587 c 0,-9.527 -2.595,-16.822 -7.778,-21.887 -5.186,-5.065 -12.544,-7.597 -22.068,-7.597"
         style="fill:#333333;fill-opacity:1;fill-rule:nonzero;stroke:none"
         transform="matrix(0.35277776,0,0,-0.35277776,223.90242,65.114343)"
         clip-path="url(#clipPath218)" />
      <path
         id="path219"
         d="m 0,0 h -63.31 v 116.309 h 22.972 c 0,0 10e-4,0 10e-4,-10e-4 v -94.24 c 0,-1.329 0.722,-1.99 2.17,-1.99 H 0 c 2.41,0 3.617,-1.328 3.617,-3.979 V 3.798 C 3.617,1.266 2.41,0 0,0"
         style="fill:#333333;fill-opacity:1;fill-rule:nonzero;stroke:none"
         transform="matrix(0.35277776,0,0,-0.35277776,272.46267,72.133561)"
         clip-path="url(#clipPath220)" />
      <path
         id="path221"
         d="m 0,0 h 12.843 c 3.858,0 6.602,0.815 8.23,2.443 1.628,1.628 2.441,4.368 2.441,8.23 v 55.169 c 0,3.858 -0.813,6.602 -2.441,8.23 -1.628,1.628 -4.372,2.443 -8.23,2.443 H 0 c -3.862,0 -6.575,-0.815 -8.141,-2.443 -1.568,-1.628 -2.351,-4.372 -2.351,-8.23 V 10.673 c 0,-3.862 0.783,-6.602 2.351,-8.23 C -6.575,0.815 -3.862,0 0,0 M 16.641,-19.897 H -3.617 c -9.529,0 -16.885,2.532 -22.069,7.597 -5.187,5.065 -7.778,12.36 -7.778,21.887 v 57.34 c 0,9.526 2.591,16.823 7.778,21.888 5.184,5.065 12.54,7.597 22.069,7.597 h 20.258 c 9.524,0 16.882,-2.532 22.068,-7.597 5.183,-5.065 7.778,-12.362 7.778,-21.888 V 9.587 c 0,-9.527 -2.595,-16.822 -7.778,-21.887 -5.186,-5.065 -12.544,-7.597 -22.068,-7.597"
         style="fill:#333333;fill-opacity:1;fill-rule:nonzero;stroke:none"
         transform="matrix(0.35277776,0,0,-0.35277776,292.11637,65.114343)"
         clip-path="url(#clipPath222)" />
      <path
         id="path223"
         d="m 0,0 h -19.716 c -9.529,0 -16.885,2.532 -22.069,7.597 -5.187,5.065 -7.778,12.36 -7.778,21.887 v 57.34 c 0,9.526 2.591,16.823 7.778,21.888 5.184,5.065 12.54,7.597 22.069,7.597 H 0 c 9.406,0 16.732,-2.563 21.977,-7.688 5.246,-5.126 7.868,-12.391 7.868,-21.797 V 74.344 H 10.672 c -2.533,0 -3.798,1.325 -3.798,3.98 v 7.415 c 0,3.858 -0.815,6.602 -2.443,8.23 -1.628,1.628 -4.372,2.443 -8.23,2.443 h -12.3 c -3.74,0 -6.421,-0.815 -8.049,-2.443 -1.629,-1.628 -2.443,-4.372 -2.443,-8.23 V 30.57 c 0,-3.862 0.814,-6.602 2.443,-8.23 1.628,-1.628 4.309,-2.443 8.049,-2.443 h 12.3 c 3.858,0 6.602,0.815 8.23,2.443 1.628,1.628 2.443,4.368 2.443,8.23 v 7.415 c 0,2.652 1.265,3.98 3.798,3.98 H 29.845 V 29.484 C 29.845,20.078 27.223,12.812 21.977,7.687 16.732,2.561 9.406,0 0,0"
         style="fill:#333333;fill-opacity:1;fill-rule:nonzero;stroke:none"
         transform="matrix(0.35277776,0,0,-0.35277776,335.18889,72.133561)"
         clip-path="url(#clipPath224)" />
      <path
         id="path225"
         d="m 0,0 h -22.973 v 116.309 h 22.972 c 0,0 0.001,0 0.001,-10e-4 v -55.35 h 0.361 c 0.964,2.895 2.832,6.631 5.608,11.215 l 27.495,40.338 c 1.565,2.531 3.916,3.798 7.054,3.798 h 17.727 c 1.325,0 2.139,-0.392 2.441,-1.176 0.301,-0.786 -0.031,-1.78 -0.995,-2.984 L 25.323,64.575 63.671,4.522 C 64.513,3.076 64.666,1.958 64.123,1.176 63.58,0.39 62.464,0 60.777,0 H 47.572 C 43.349,0 40.518,1.266 39.07,3.798 L 11.395,48.115 0,34.73 Z"
         style="fill:#333333;fill-opacity:1;fill-rule:nonzero;stroke:none"
         transform="matrix(0.35277776,0,0,-0.35277776,362.94678,72.133561)"
         clip-path="url(#clipPath226)" />
      <path
         id="path227"
         d="m 0,0 h 7.488 c 3.968,0 8.698,-1.218 8.698,-7.02 0,-5.801 -4.73,-7.019 -8.698,-7.019 H 0 Z M 7.632,5.803 H -6.344 V -30.332 H 0 v 10.49 h 7.632 c 9.19,0 14.898,4.914 14.898,12.822 0,7.909 -5.708,12.823 -14.898,12.823"
         style="fill:#003f91;fill-opacity:1;fill-rule:nonzero;stroke:none"
         transform="matrix(0.35277776,0,0,-0.35277776,107.24221,86.205267)"
         clip-path="url(#clipPath228)" />
      <path
         id="path229"
         d="m 0,0 c 0,-6.989 -2.893,-10.385 -8.845,-10.385 -5.918,0 -8.795,3.396 -8.795,10.385 v 20.244 h -6.344 V -0.199 c 0,-10.223 5.5,-16.087 15.091,-16.087 9.59,0 15.091,5.864 15.091,16.087 V 20.244 H 0 Z"
         style="fill:#003f91;fill-opacity:1;fill-rule:nonzero;stroke:none"
         transform="matrix(0.35277776,0,0,-0.35277776,131.17274,91.299872)"
         clip-path="url(#clipPath230)" />
      <path
         id="path231"
         d="M 0,0 H 17.005 V 5.705 H 0 v 9.14 h 19.09 v 5.803 H -6.344 v -36.135 h 26.112 v 5.802 L 0,-9.685 Z"
         style="fill:#003f91;fill-opacity:1;fill-rule:nonzero;stroke:none"
         transform="matrix(0.35277776,0,0,-0.35277776,144.17883,91.442289)"
         clip-path="url(#clipPath232)" />
      <path
         id="path233"
         d="m 0,0 h 7.488 c 3.968,0 8.698,-1.218 8.698,-7.02 0,-5.843 -4.73,-7.069 -8.698,-7.069 H 0 Z M 22.53,-7.02 C 22.53,0.889 16.822,5.803 7.632,5.803 H -6.344 V -30.332 H 0 v 10.54 h 7.632 c 0.595,0 1.19,0.031 1.759,0.07 l 7.296,-10.61 H 23.79 L 15.469,-18.3 c 4.563,2.011 7.061,5.982 7.061,11.28"
         style="fill:#003f91;fill-opacity:1;fill-rule:nonzero;stroke:none"
         transform="matrix(0.35277776,0,0,-0.35277776,161.23716,86.205267)"
         clip-path="url(#clipPath234)" />
      <path
         id="path235"
         d="m 0,0 h 11.629 v -30.332 h 6.295 V 0 H 29.553 V 5.803 H 0 Z"
         style="fill:#003f91;fill-opacity:1;fill-rule:nonzero;stroke:none"
         transform="matrix(0.35277776,0,0,-0.35277776,175.13439,86.205267)"
         clip-path="url(#clipPath236)" />
      <path
         id="path237"
         d="m 0,0 h -12.356 l 6.178,14.332 z m -9.04,22.02 -16.023,-36.135 h 6.635 l 3.73,8.659 H 2.341 l 3.731,-8.659 h 6.733 L -3.269,22.02 Z"
         style="fill:#003f91;fill-opacity:1;fill-rule:nonzero;stroke:none"
         transform="matrix(0.35277776,0,0,-0.35277776,198.79018,91.926299)"
         clip-path="url(#clipPath238)" />
      <path
         id="path239"
         d="m 0,0 c -4.37,1.081 -8.144,2.013 -8.144,5.228 0,3.014 2.729,4.743 7.489,4.743 3.069,0 6.227,-0.958 8.893,-2.698 l 0.763,-0.498 2.162,5.354 -0.485,0.342 c -2.85,2.007 -7.087,3.205 -11.333,3.205 -10.127,0 -13.735,-5.5 -13.735,-10.646 0,-7.689 6.899,-9.399 12.442,-10.773 4.348,-1.076 8.102,-2.006 8.102,-5.21 0,-2.919 -2.782,-4.594 -7.633,-4.594 -3.984,0 -8.179,1.495 -10.684,3.809 l -0.755,0.696 -2.453,-5.277 0.391,-0.371 c 2.919,-2.77 8.219,-4.56 13.501,-4.56 10.245,0 13.88,5.707 13.88,10.594 C 12.401,-3.066 5.525,-1.366 0,0"
         style="fill:#003f91;fill-opacity:1;fill-rule:nonzero;stroke:none"
         transform="matrix(0.35277776,0,0,-0.35277776,214.2935,89.548542)"
         clip-path="url(#clipPath240)" />
      <path
         id="path241"
         d="m 0,0 h 10.394 c 6.756,0 7.537,-2.877 7.537,-5.04 0,-2.143 -0.781,-4.991 -7.537,-4.991 L 0,-10.031 Z M 9.183,5.506 H 0 v 9.586 h 9.183 c 3.195,0 7.003,-0.832 7.003,-4.793 0,-3.961 -3.808,-4.793 -7.003,-4.793 M 18.938,3.35 c 2.302,1.707 3.592,4.379 3.592,7.543 0,6.077 -4.827,9.705 -12.911,9.705 H -6.344 v -36.135 h 16.933 c 8.856,0 13.733,3.588 13.733,10.102 0,4.117 -1.94,7.241 -5.384,8.785"
         style="fill:#003f91;fill-opacity:1;fill-rule:nonzero;stroke:none"
         transform="matrix(0.35277776,0,0,-0.35277776,238.68332,91.424755)"
         clip-path="url(#clipPath242)" />
      <path
         id="path243"
         d="m 0,0 h -6.344 v -36.135 h 24.707 v 5.803 H 0 Z"
         style="fill:#003f91;fill-opacity:1;fill-rule:nonzero;stroke:none"
         transform="matrix(0.35277776,0,0,-0.35277776,257.22825,84.158273)"
         clip-path="url(#clipPath244)" />
      <path
         id="path245"
         d="m 1096.95,496.846 h 6.344 v 36.135 h -6.344 z"
         style="fill:#003f91;fill-opacity:1;fill-rule:nonzero;stroke:none"
         transform="matrix(0.35277776,0,0,-0.35277776,-116.22982,272.18195)"
         clip-path="url(#clipPath246)" />
      <path
         id="path247"
         d="m 0,0 -19.238,24.417 h -5.085 v -36.135 h 6.343 V 12.701 L 1.257,-11.718 H 6.342 V 24.417 H 0 Z"
         style="fill:#003f91;fill-opacity:1;fill-rule:nonzero;stroke:none"
         transform="matrix(0.35277776,0,0,-0.35277776,290.2355,92.772048)"
         clip-path="url(#clipPath248)" />
      <path
         id="path249"
         d="M 0,0 H 8.408 C 16.312,0 21.42,-4.814 21.42,-12.265 21.42,-19.716 16.312,-24.53 8.408,-24.53 H 0 Z M 8.699,5.803 H -6.344 V -30.332 H 8.699 c 11.224,0 19.063,7.429 19.063,18.067 0,10.638 -7.839,18.068 -19.063,18.068"
         style="fill:#003f91;fill-opacity:1;fill-rule:nonzero;stroke:none"
         transform="matrix(0.35277776,0,0,-0.35277776,303.37831,86.205267)"
         clip-path="url(#clipPath250)" />
      <path
         id="path251"
         d="m 0,0 h -12.355 l 6.178,14.332 z m -9.038,22.02 -16.024,-36.135 h 6.635 l 3.73,8.659 H 2.342 l 3.73,-8.659 h 6.734 L -3.268,22.02 Z"
         style="fill:#003f91;fill-opacity:1;fill-rule:nonzero;stroke:none"
         transform="matrix(0.35277776,0,0,-0.35277776,327.58183,91.926299)"
         clip-path="url(#clipPath252)" />
      <path
         id="path253"
         d="M 0,0 H 8.408 C 16.312,0 21.42,-4.814 21.42,-12.265 21.42,-19.716 16.312,-24.53 8.408,-24.53 H 0 Z M 8.699,5.803 H -6.344 V -30.332 H 8.699 c 11.224,0 19.063,7.429 19.063,18.067 0,10.638 -7.839,18.068 -19.063,18.068"
         style="fill:#003f91;fill-opacity:1;fill-rule:nonzero;stroke:none"
         transform="matrix(0.35277776,0,0,-0.35277776,341.05029,86.205267)"
         clip-path="url(#clipPath254)" />
      <path
         id="path255"
         d="m 0,0 h -12.355 l 6.178,14.332 z m -9.038,22.02 -16.024,-36.135 h 6.635 l 3.73,8.659 H 2.342 l 3.73,-8.659 h 6.734 L -3.268,22.02 Z"
         style="fill:#003f91;fill-opacity:1;fill-rule:nonzero;stroke:none"
         transform="matrix(0.35277776,0,0,-0.35277776,365.25384,91.926299)"
         clip-path="url(#clipPath256)" />
      <path
         id="path257"
         d="m 0,0 c -4.369,1.081 -8.143,2.013 -8.143,5.228 0,3.014 2.729,4.743 7.488,4.743 3.068,0 6.227,-0.958 8.893,-2.698 l 0.763,-0.498 2.162,5.354 -0.485,0.342 c -2.85,2.007 -7.087,3.205 -11.333,3.205 -10.127,0 -13.735,-5.5 -13.735,-10.646 0,-7.689 6.899,-9.399 12.442,-10.773 4.348,-1.076 8.102,-2.006 8.102,-5.21 0,-2.919 -2.783,-4.594 -7.633,-4.594 -3.984,0 -8.179,1.495 -10.684,3.809 l -0.755,0.696 -2.453,-5.277 0.391,-0.371 c 2.919,-2.77 8.219,-4.56 13.501,-4.56 10.244,0 13.878,5.707 13.878,10.594 C 12.399,-3.066 5.525,-1.366 0,0"
         style="fill:#003f91;fill-opacity:1;fill-rule:nonzero;stroke:none"
         transform="matrix(0.35277776,0,0,-0.35277776,380.75739,89.548542)"
         clip-path="url(#clipPath258)" />
    </g>
  </g>
</svg>
