<?xml version="1.0" encoding="utf-8"?>
<!-- Generator: Adobe Illustrator 26.0.3, SVG Export Plug-In . SVG Version: 6.00 Build 0)  -->
<svg version="1.0" id="Art" xmlns="http://www.w3.org/2000/svg" xmlns:xlink="http://www.w3.org/1999/xlink" x="0px" y="0px"
	 viewBox="0 0 116 88" style="enable-background:new 0 0 116 88;" xml:space="preserve">
<style type="text/css">
	.st0{fill:url(#SVGID_1_);}
</style>
<linearGradient id="SVGID_1_" gradientUnits="userSpaceOnUse" x1="57.8939" y1="724.0107" x2="58.0812" y2="671.8442" gradientTransform="matrix(1 0 0 1 0 -650.46)">
	<stop  offset="0" style="stop-color:#FFB300"/>
	<stop  offset="4.770000e-02" style="stop-color:#FFB800"/>
	<stop  offset="0.3278" style="stop-color:#FFD000"/>
	<stop  offset="0.5" style="stop-color:#FFD900"/>
	<stop  offset="0.6722" style="stop-color:#FFDD09"/>
	<stop  offset="0.9523" style="stop-color:#FFE921"/>
	<stop  offset="1" style="stop-color:#FFEB26"/>
</linearGradient>
<path class="st0" d="M88,44c0,16.6-13.4,30-30,30S28,60.6,28,44s13.4-30,30-30S88,27.4,88,44"/>
<g>
	<path d="M50.8,33h-3.9l-4.8,9l-4.8-9h-3.9l6.9,12.4v7.7h3.6v-7.7L50.8,33L50.8,33z"/>
	<path d="M54,38.1c-4,0-5.9,2.1-6.1,5h3.5c0.1-1.3,0.8-2.1,2.6-2.1c2.1,0,2.7,1,2.7,2.5v0.9h-3.1c-2,0-3.3,0.2-4.3,0.9
		c-1.2,0.8-1.9,1.9-1.9,3.6c0,2.1,1.3,4.5,5.3,4.5c2,0,3.3-0.6,4.2-1.7v1.5h3.3v-9.6C60.1,40.4,58.4,38.1,54,38.1z M56.6,48.5
		c0,1.6-1.4,2.3-3.3,2.3c-2.1,0-2.6-0.9-2.6-2c0-0.6,0.2-1.1,0.7-1.4c0.4-0.2,1-0.3,2.2-0.3h3L56.6,48.5L56.6,48.5z"/>
	<path d="M79.9,40.2c-1.1-1.3-2.8-2.2-5.2-2.2c-2.5,0-4.2,0.9-5.3,2.2c-1.3,1.6-1.6,3.9-1.6,5.6c0,1.6,0.3,3.5,1.4,5.1
		c1.1,1.5,2.9,2.5,5.7,2.5c1.9,0,3.4-0.4,4.5-1.2c1.1-0.8,1.9-2.1,2-3.4h-3.5c-0.1,0.5-0.4,0.9-0.8,1.3c-0.5,0.4-1.2,0.5-2.2,0.5
		c-1.4,0-2.3-0.4-2.8-1.2c-0.4-0.6-0.6-1.6-0.6-2.5h10.1C81.6,44.2,81.2,41.8,79.9,40.2z M71.4,44.3c0-0.8,0.3-1.9,0.9-2.5
		c0.6-0.6,1.4-0.9,2.4-0.9s1.8,0.3,2.4,0.9c0.6,0.6,0.8,1.7,0.8,2.5H71.4L71.4,44.3z"/>
	<path d="M67.5,53.3v-3.1c-1.6,0.1-2-0.6-2-1.9V33h-3.4v15.6C62.1,51.6,63.2,53.5,67.5,53.3L67.5,53.3z"/>
</g>
</svg>
